<?xml version="1.0" encoding="UTF-8" standalone="no"?>
<!-- Created with Inkscape (http://www.inkscape.org/) -->

<svg
   version="1.1"
   id="svg2"
   width="470.51999"
   height="228.39999"
   viewBox="0 0 470.51999 228.39999"
   sodipodi:docname="Logo_SELR_white.eps"
   xmlns:inkscape="http://www.inkscape.org/namespaces/inkscape"
   xmlns:sodipodi="http://sodipodi.sourceforge.net/DTD/sodipodi-0.dtd"
   xmlns="http://www.w3.org/2000/svg"
   xmlns:svg="http://www.w3.org/2000/svg">
  <defs
     id="defs6" />
  <sodipodi:namedview
     id="namedview4"
     pagecolor="#ffffff"
     bordercolor="#000000"
     borderopacity="0.25"
     inkscape:showpageshadow="2"
     inkscape:pageopacity="0.0"
     inkscape:pagecheckerboard="0"
     inkscape:deskcolor="#d1d1d1" />
  <g
     id="g8"
     inkscape:groupmode="layer"
     inkscape:label="ink_ext_XXXXXX"
     transform="matrix(1.3333333,0,0,-1.3333333,0,228.4)">
    <g
       id="g10"
       transform="scale(0.1)">
      <path
         d="m 137.5,857.191 c 45.398,-51.398 90.016,-89.753 134.105,-115.32 44.098,-25.308 87.93,-38.09 131.762,-38.09 40.703,0 74.363,10.953 100.453,32.871 26.352,21.918 39.395,49.571 39.395,83.231 0,37.047 -11.219,65.75 -33.918,85.84 -22.699,20.086 -73.836,40.961 -153.676,62.355 -109.582,29.485 -187.336,68.102 -232.73,115.322 -45.3988,47.49 -68.1019,112.45 -68.1019,194.9 0,107.24 35.7461,194.38 107.4959,261.96 71.492,67.57 164.637,101.23 278.653,101.23 61.839,0 120.281,-8.35 175.593,-24.79 55.313,-16.7 107.754,-41.74 157.328,-75.4 l -95.754,-219.17 c -34.699,29.49 -70.183,51.67 -106.71,66.8 -36.266,14.87 -72.274,22.43 -108.016,22.43 -36.527,0 -66.274,-8.86 -89.234,-26.34 -22.957,-17.49 -34.438,-40.19 -34.438,-67.58 0,-27.92 9.914,-50.36 30.004,-67.32 20.09,-16.69 58.965,-32.87 116.367,-48.01 l 13.824,-3.91 c 124.457,-33.66 206.383,-70.44 245.52,-110.89 26.609,-27.39 46.703,-60.53 60.531,-98.88 13.828,-38.617 20.61,-81.145 20.61,-128.106 0,-118.715 -38.875,-214.203 -116.887,-286.222 -78.012,-72.27 -182.113,-108.27 -312.047,-108.27 -78.016,0 -148.981,13.297 -213.164,39.656 C 120.539,532.102 58.9648,573.582 0,630.199 l 137.5,226.992"
         style="fill:#231f20;fill-opacity:1;fill-rule:evenodd;stroke:none"
         id="path12" />
      <path
         d="m 903.27,495.57 v 1119.31 h 685.67 V 1369.1 h -388.23 v -194.12 h 366.06 V 935.465 H 1200.71 V 746.047 h 388.23 V 495.57 H 903.27"
         style="fill:#231f20;fill-opacity:1;fill-rule:evenodd;stroke:none"
         id="path14" />
      <path
         d="m 1696.7,495.57 v 1119.31 h 305.26 V 757 H 2380.8 V 495.57 h -684.1"
         style="fill:#231f20;fill-opacity:1;fill-rule:evenodd;stroke:none"
         id="path16" />
      <path
         d="m 2769.3,1085.75 h 56.36 c 65.75,0 113.75,11.22 144.02,33.66 30.27,22.43 45.4,57.66 45.4,105.4 0,56.1 -14.09,96.02 -42.27,119.76 -28.44,23.75 -75.66,35.48 -142.46,35.48 H 2769.3 Z M 2482.82,495.57 v 1119.31 h 319.35 c 124.72,0 211.86,-5.74 260.91,-17.22 49.06,-11.48 91.58,-30.79 127.33,-57.67 40.18,-30.52 71.23,-69.66 92.88,-116.88 21.66,-47.49 32.36,-99.67 32.36,-156.81 0,-86.62 -21.4,-157.07 -63.93,-211.34 -42.79,-54.27 -104.88,-90.272 -186.55,-108.015 L 3370.44,495.57 H 3026.03 L 2769.3,933.898 V 495.57 h -286.48 v 0"
         style="fill:#231f20;fill-opacity:1;fill-rule:evenodd;stroke:none"
         id="path18" />
      <path
         d="M 41.2969,249.922 H 79.875 l 45.461,-121.274 c 2.91,-7.949 5.43,-14.949 7.445,-20.988 2.016,-6 3.809,-11.6483 5.317,-16.8514 3.863,12.6524 7.84,25.0824 11.984,37.2304 0.559,1.512 0.949,2.57 1.172,3.07 l 48.207,128.211 50.832,-130.672 c 2.406,-6.328 4.703,-12.648 6.832,-18.976 2.125,-6.383 4.141,-12.7618 5.988,-19.2032 1.067,4.9218 2.575,10.3012 4.422,16.2302 1.852,5.883 4.258,12.883 7.227,21 l 45.121,122.223 h 38.855 L 265.746,0.332031 210.938,137.391 c -2.411,6.097 -4.594,11.98 -6.551,17.629 -1.961,5.601 -3.754,10.968 -5.266,15.949 -1.848,-6.43 -3.691,-12.481 -5.598,-18.078 -1.847,-5.653 -3.75,-11.032 -5.707,-16.18 L 134.012,0.332031 41.2969,249.922"
         style="fill:#231f20;fill-opacity:1;fill-rule:evenodd;stroke:none"
         id="path20" />
      <path
         d="M 385.273,9.73828 V 249.922 H 519.305 V 216.66 h -95.063 v -60.129 h 95.063 V 122.27 H 424.242 V 44.6719 h 95.063 V 9.73828 H 385.273"
         style="fill:#231f20;fill-opacity:1;fill-rule:evenodd;stroke:none"
         id="path22" />
      <path
         d="M 824.09,9.73828 796.879,71.5508 H 701.703 L 673.824,9.73828 H 632.84 L 749.121,259.32 865.297,9.73828 Z M 716.148,104.129 h 66.961 l -24.632,54.75 c -1.403,3.473 -2.914,7.512 -4.426,12.043 -1.512,4.527 -3.078,9.566 -4.59,15.168 -1.289,-5.258 -2.688,-10.129 -4.199,-14.668 -1.457,-4.531 -2.965,-8.731 -4.481,-12.543 l -24.633,-54.75 v 0"
         style="fill:#231f20;fill-opacity:1;fill-rule:evenodd;stroke:none"
         id="path24" />
      <path
         d="M 924.473,117.23 V 9.73828 H 887.855 V 249.922 h 54.422 c 15.953,0 28.325,-1.07 37.172,-3.141 8.789,-2.07 16.289,-5.492 22.511,-10.301 7.44,-5.82 13.15,-13.32 17.24,-22.511 4.03,-9.18 6.05,-19.199 6.05,-30.168 0,-19.211 -4.65,-34.27 -13.94,-45.18 -9.3,-10.859 -23.013,-17.41 -41.154,-19.601 L 1052.79,9.73828 h -44.01 L 928.84,117.23 Z m 2.351,30.231 h 7.11 c 20.66,0 34.375,2.41 41.152,7.23 6.769,4.809 10.187,13.321 10.187,25.579 0,13.21 -3.64,22.511 -10.918,27.941 -7.281,5.43 -20.773,8.109 -40.421,8.109 h -7.11 v -68.859 0"
         style="fill:#231f20;fill-opacity:1;fill-rule:evenodd;stroke:none"
         id="path26" />
      <path
         d="M 1075.97,9.73828 V 249.922 H 1210 V 216.66 h -95.06 V 156.531 H 1210 V 122.27 h -95.06 V 44.6719 H 1210 V 9.73828 h -134.03"
         style="fill:#231f20;fill-opacity:1;fill-rule:evenodd;stroke:none"
         id="path28" />
      <path
         d="M 1356.12,9.73828 V 249.922 h 134.03 V 216.66 h -95.06 v -60.129 h 95.06 V 122.27 h -95.06 V 44.6719 h 95.06 V 9.73828 h -134.03"
         style="fill:#231f20;fill-opacity:1;fill-rule:evenodd;stroke:none"
         id="path30" />
      <path
         d="m 1727.58,191.469 c -11.02,9.402 -22.73,16.461 -34.99,21.16 -12.31,4.703 -25.25,7.051 -38.79,7.051 -26.21,0 -47.54,-8.391 -64,-25.239 -16.45,-16.859 -24.68,-38.64 -24.68,-65.453 0,-25.867 8,-47.2497 24.01,-64.1091 16.01,-16.8476 36.22,-25.2383 60.58,-25.2383 14.22,0 27.71,2.5196 40.59,7.5508 12.82,5.0391 25.14,12.5977 36.95,22.7891 V 25.8594 c -10.47,-7.5586 -21.89,-13.211 -34.26,-16.91018 -12.38,-3.75 -25.76,-5.59766 -40.14,-5.59766 -18.37,0 -35.33,3.02735 -50.9,9.01954 -15.62,6.0508 -29.28,14.8906 -41.09,26.5898 -11.7,11.4805 -20.66,25.0274 -26.99,40.5899 -6.27,15.5703 -9.4,32.1872 -9.4,49.7692 0,17.641 3.13,34.149 9.4,49.61 6.33,15.511 15.4,29.05 27.32,40.75 11.93,11.82 25.59,20.769 40.99,26.82 15.39,6.109 32.08,9.129 49.99,9.129 14.11,0 27.55,-2.078 40.31,-6.16 12.82,-4.137 25.2,-10.36 37.23,-18.699 l -2.13,-39.301"
         style="fill:#231f20;fill-opacity:1;fill-rule:evenodd;stroke:none"
         id="path32" />
      <path
         d="m 2022.24,129.32 c 0,-17.07 -3.2,-33.1989 -9.58,-48.3708 -6.44,-15.2304 -15.73,-28.7695 -27.99,-40.6992 -12.32,-11.9297 -26.26,-21.0508 -41.82,-27.3789 -15.51,-6.32032 -31.8,-9.51954 -48.82,-9.51954 -17.3,0 -33.76,3.19922 -49.49,9.57814 -15.68,6.4414 -29.51,15.5117 -41.54,27.3203 -12.26,11.9297 -21.56,25.4219 -27.89,40.5313 -6.32,15.0585 -9.51,31.2387 -9.51,48.5387 0,17.192 3.19,33.371 9.51,48.539 6.33,15.231 15.63,28.84 27.89,40.871 12.26,11.93 26.14,21 41.65,27.211 15.51,6.219 31.97,9.348 49.38,9.348 17.24,0 33.59,-3.129 49.1,-9.348 15.45,-6.211 29.34,-15.281 41.54,-27.211 12.26,-12.148 21.55,-25.859 27.99,-41.089 6.38,-15.289 9.58,-31.352 9.58,-48.321 z m -40.65,0 c 0,12.149 -2.24,23.692 -6.66,34.602 -4.43,10.918 -10.81,20.66 -19.09,29.168 -8.12,8.449 -17.47,14.89 -28.11,19.43 -10.69,4.531 -21.94,6.832 -33.7,6.832 -11.81,0 -23.07,-2.243 -33.76,-6.723 -10.64,-4.481 -20.15,-10.969 -28.44,-19.539 -8.29,-8.399 -14.67,-18.078 -19.04,-29 -4.36,-10.918 -6.55,-22.508 -6.55,-34.77 0,-12.148 2.19,-23.621 6.55,-34.4294 4.37,-10.8008 10.75,-20.4922 19.04,-29 8.29,-8.5586 17.74,-15.0586 28.38,-19.539 10.58,-4.4805 21.89,-6.711 33.82,-6.711 11.7,0 22.79,2.2305 33.37,6.711 10.52,4.4804 20.04,10.9804 28.44,19.539 8.28,8.5078 14.66,18.1992 19.09,29.0586 4.42,10.9218 6.66,22.3398 6.66,34.3708 v 0"
         style="fill:#231f20;fill-opacity:1;fill-rule:evenodd;stroke:none"
         id="path34" />
      <path
         d="m 2262.8,128.32 c -0.44,1.84 -1.17,6.989 -2.12,15.391 -0.9,7 -1.68,12.82 -2.3,17.41 -1,-5.48 -2.4,-10.973 -4.2,-16.402 -1.79,-5.489 -4.08,-11.028 -6.83,-16.739 L 2184.54,0 2121.72,130.609 c -2.63,5.371 -4.93,10.532 -6.83,15.571 -1.9,5.039 -3.58,10.019 -4.98,14.941 -0.11,-5.039 -0.51,-10.301 -1.23,-15.84 -0.73,-5.543 -1.8,-11.312 -3.19,-17.301 L 2079.73,9.73828 h -35.94 l 56.77,250.24972 70.88,-151.547 c 1.06,-2.351 2.74,-6.382 4.98,-11.9293 2.24,-5.5898 4.93,-12.4804 8.12,-20.6523 2.29,6.8789 5.93,15.6211 10.86,26.1996 1.29,2.851 2.3,5.043 2.91,6.55 l 69.25,151.379 58.06,-250.24972 h -36.28 L 2262.8,128.32"
         style="fill:#231f20;fill-opacity:1;fill-rule:evenodd;stroke:none"
         id="path36" />
      <path
         d="m 2552.64,128.32 c -0.45,1.84 -1.17,6.989 -2.13,15.391 -0.89,7 -1.68,12.82 -2.29,17.41 -1.01,-5.48 -2.41,-10.973 -4.2,-16.402 -1.79,-5.489 -4.09,-11.028 -6.83,-16.739 L 2474.37,0 2411.56,130.609 c -2.63,5.371 -4.93,10.532 -6.83,15.571 -1.91,5.039 -3.58,10.019 -4.98,14.941 -0.12,-5.039 -0.51,-10.301 -1.24,-15.84 -0.72,-5.543 -1.79,-11.312 -3.19,-17.301 L 2369.57,9.73828 h -35.94 l 56.77,250.24972 70.87,-151.547 c 1.07,-2.351 2.75,-6.382 4.98,-11.9293 2.24,-5.5898 4.93,-12.4804 8.12,-20.6523 2.3,6.8789 5.94,15.6211 10.87,26.1996 1.28,2.851 2.29,5.043 2.91,6.55 l 69.25,151.379 58.06,-250.24972 h -36.28 L 2552.64,128.32"
         style="fill:#231f20;fill-opacity:1;fill-rule:evenodd;stroke:none"
         id="path38" />
      <path
         d="M 2646.64,9.73828 V 249.922 h 134.03 V 216.66 h -95.06 v -60.129 h 95.06 V 122.27 h -95.06 V 44.6719 h 95.06 V 9.73828 h -134.03"
         style="fill:#231f20;fill-opacity:1;fill-rule:evenodd;stroke:none"
         id="path40" />
      <path
         d="M 2862.02,117.23 V 9.73828 H 2825.4 V 249.922 h 54.42 c 15.96,0 28.33,-1.07 37.17,-3.141 8.79,-2.07 16.3,-5.492 22.51,-10.301 7.45,-5.82 13.16,-13.32 17.24,-22.511 4.04,-9.18 6.05,-19.199 6.05,-30.168 0,-19.211 -4.64,-34.27 -13.94,-45.18 -9.29,-10.859 -23.01,-17.41 -41.15,-19.601 L 2990.34,9.73828 h -44.01 L 2866.38,117.23 Z m 2.35,30.231 h 7.11 c 20.66,0 34.37,2.41 41.15,7.23 6.77,4.809 10.19,13.321 10.19,25.579 0,13.21 -3.64,22.511 -10.92,27.941 -7.28,5.43 -20.77,8.109 -40.42,8.109 h -7.11 v -68.859 0"
         style="fill:#231f20;fill-opacity:1;fill-rule:evenodd;stroke:none"
         id="path42" />
      <path
         d="m 3206.22,191.469 c -11.03,9.402 -22.73,16.461 -34.99,21.16 -12.32,4.703 -25.25,7.051 -38.8,7.051 -26.2,0 -47.53,-8.391 -63.99,-25.239 -16.46,-16.859 -24.69,-38.64 -24.69,-65.453 0,-25.867 8,-47.2497 24.01,-64.1091 16.02,-16.8476 36.23,-25.2383 60.58,-25.2383 14.22,0 27.71,2.5196 40.59,7.5508 12.82,5.0391 25.14,12.5977 36.95,22.7891 V 25.8594 c -10.47,-7.5586 -21.89,-13.211 -34.26,-16.91018 -12.37,-3.75 -25.76,-5.59766 -40.14,-5.59766 -18.37,0 -35.33,3.02735 -50.89,9.01954 -15.62,6.0508 -29.28,14.8906 -41.1,26.5898 -11.7,11.4805 -20.66,25.0274 -26.98,40.5899 -6.27,15.5703 -9.41,32.1872 -9.41,49.7692 0,17.641 3.14,34.149 9.41,49.61 6.32,15.511 15.39,29.05 27.32,40.75 11.92,11.82 25.58,20.769 40.98,26.82 15.4,6.109 32.08,9.129 50,9.129 14.1,0 27.54,-2.078 40.3,-6.16 12.83,-4.137 25.2,-10.36 37.24,-18.699 l -2.13,-39.301"
         style="fill:#231f20;fill-opacity:1;fill-rule:evenodd;stroke:none"
         id="path44" />
      <path
         d="M 3254.64,9.73828 V 249.922 h 134.03 V 216.66 h -95.06 v -60.129 h 95.06 V 122.27 h -95.06 V 44.6719 h 95.06 V 9.73828 h -134.03"
         style="fill:#231f20;fill-opacity:1;fill-rule:evenodd;stroke:none"
         id="path46" />
      <path
         d="m 3379.34,1600.94 h 24.93 c 11.93,0 20.06,1.77 24.4,5.3 4.33,3.53 6.52,8.24 6.52,14.01 0,3.75 -1.07,7.12 -3.15,10.06 -2.09,3 -4.98,5.19 -8.67,6.63 -3.75,1.45 -10.59,2.2 -20.65,2.2 h -23.38 z m -20.54,-71.57 v 127.1 h 43.76 c 14.98,0 25.78,-1.18 32.47,-3.53 6.74,-2.35 12.04,-6.42 16.05,-12.31 3.96,-5.83 5.94,-12.03 5.94,-18.61 0,-9.25 -3.32,-17.39 -10.01,-24.23 -6.63,-6.9 -15.46,-10.75 -26.48,-11.61 4.5,-1.88 8.14,-4.12 10.81,-6.74 5.13,-4.98 11.39,-13.38 18.83,-25.2 l 15.51,-24.87 h -24.92 l -11.35,20.01 c -8.88,15.77 -16.1,25.67 -21.55,29.63 -3.75,2.89 -9.21,4.33 -16.43,4.28 h -12.09 v -53.92 h -20.54 z m 51.94,164.01 c -16.63,0 -32.84,-4.28 -48.57,-12.78 -15.73,-8.51 -28.03,-20.71 -36.91,-36.54 -8.88,-15.84 -13.32,-32.31 -13.32,-49.43 0,-17.06 4.39,-33.38 13.1,-49 8.72,-15.62 20.92,-27.82 36.59,-36.54 15.68,-8.71 32.05,-13.11 49.11,-13.11 17.02,0 33.39,4.4 49.06,13.11 15.67,8.72 27.87,20.92 36.54,36.54 8.66,15.62 12.99,31.94 12.99,49 0,17.12 -4.43,33.59 -13.26,49.43 -8.83,15.83 -21.13,28.03 -36.91,36.54 -15.79,8.5 -31.94,12.78 -48.42,12.78 z m 0,19.58 c 19.85,0 39.22,-5.08 58.15,-15.3 18.89,-10.16 33.65,-24.77 44.19,-43.7 10.54,-19 15.83,-38.79 15.83,-59.33 0,-20.38 -5.18,-40.01 -15.62,-58.79 -10.37,-18.83 -24.92,-33.43 -43.7,-43.82 -18.78,-10.43 -38.41,-15.61 -58.85,-15.61 -20.48,0 -40.12,5.18 -58.89,15.61 -18.78,10.39 -33.38,24.99 -43.82,43.82 -10.43,18.78 -15.67,38.41 -15.67,58.79 0,20.54 5.3,40.33 15.89,59.33 10.64,18.93 25.41,33.54 44.29,43.7 18.94,10.22 38.3,15.3 58.2,15.3 v 0"
         style="fill:#231f20;fill-opacity:1;fill-rule:evenodd;stroke:none"
         id="path48" />
    </g>
  </g>
</svg>
